<?xml version="1.0" standalone="no"?><!DOCTYPE svg PUBLIC "-//W3C//DTD SVG 1.1//EN" "http://www.w3.org/Graphics/SVG/1.1/DTD/svg11.dtd"><svg t="1556089324959" class="icon" style="" viewBox="0 0 1024 1024" version="1.1" xmlns="http://www.w3.org/2000/svg" p-id="823" xmlns:xlink="http://www.w3.org/1999/xlink" width="200" height="200"><defs><style type="text/css"></style></defs><path d="M512 85.333c235.52 0 426.667 191.147 426.667 426.667S747.52 938.667 512 938.667 85.333 747.52 85.333 512 276.48 85.333 512 85.333zM256.981 657.75c62.635 93.44 156.672 152.918 261.846 152.918 105.13 0 199.21-59.435 261.802-152.918a382.635 382.635 0 0 0-261.802-103.082A382.635 382.635 0 0 0 256.98 657.749zM512 469.333a128 128 0 1 0 0-256 128 128 0 0 0 0 256z" p-id="824" fill="#707070"></path></svg>