<?xml version="1.0" standalone="no"?><!DOCTYPE svg PUBLIC "-//W3C//DTD SVG 1.1//EN" "http://www.w3.org/Graphics/SVG/1.1/DTD/svg11.dtd"><svg t="1556645066350" class="icon" style="" viewBox="0 0 1024 1024" version="1.1" xmlns="http://www.w3.org/2000/svg" p-id="2031" xmlns:xlink="http://www.w3.org/1999/xlink" width="200" height="200"><defs><style type="text/css"></style></defs><path d="M512 1024a512 512 0 1 1 512-512 512.576 512.576 0 0 1-512 512z m0-960a448 448 0 1 0 448 448A448.512 448.512 0 0 0 512 64z m-34.848 630.4a32 32 0 0 1-22.688 9.6H454.4a32 32 0 0 1-22.624-9.376l-166.4-166.4A32 32 0 0 1 310.624 483.2l143.424 143.36 259.2-264.864a32 32 0 1 1 45.76 44.8z" p-id="2032" fill="#bfbfbf"></path></svg>