<?xml version="1.0" standalone="no"?><!DOCTYPE svg PUBLIC "-//W3C//DTD SVG 1.1//EN" "http://www.w3.org/Graphics/SVG/1.1/DTD/svg11.dtd"><svg t="1556098330247" class="icon" style="" viewBox="0 0 1024 1024" version="1.1" xmlns="http://www.w3.org/2000/svg" p-id="23659" xmlns:xlink="http://www.w3.org/1999/xlink" width="200" height="200"><defs><style type="text/css"></style></defs><path d="M356.372992 834.7136l-65.7408-153.3952-0.1024-0.2048-87.7568-204.8a25.6 25.6 0 0 0-47.104 0l-87.7568 204.8-0.1024 0.2048L2.068992 834.7136a25.6 25.6 0 1 0 47.104 20.1728L108.360192 716.8h141.7728l59.1872 138.0864a25.6 25.6 0 0 0 33.6384 13.4144 25.6512 25.6512 0 0 0 13.4656-33.6384zM130.273792 665.6l48.9472-114.2272L228.168192 665.6H130.273792zM1022.075392 834.9696l-106.6496-256-0.1024-0.2048-149.248-358.1952a25.7024 25.7024 0 0 0-47.3088 0l-149.248 358.1952-0.1024 0.2048-106.6496 256a25.6 25.6 0 0 0 47.2576 19.712l100.096-240.2304h264.5504l100.096 240.2304a25.6 25.6 0 1 0 47.2576-19.712zM631.470592 563.2L742.420992 296.96l110.9504 266.24h-221.8496z" fill="#707070" p-id="23660"></path></svg>