<?xml version="1.0" standalone="no"?><!DOCTYPE svg PUBLIC "-//W3C//DTD SVG 1.1//EN" "http://www.w3.org/Graphics/SVG/1.1/DTD/svg11.dtd"><svg t="1556155273946" class="icon" style="" viewBox="0 0 1024 1024" version="1.1" xmlns="http://www.w3.org/2000/svg" p-id="11768" xmlns:xlink="http://www.w3.org/1999/xlink" width="200" height="200"><defs><style type="text/css"></style></defs><path d="M512 27.2C244.672 27.2 27.2 244.672 27.2 512S244.672 996.8 512 996.8 996.8 779.328 996.8 512 779.328 27.2 512 27.2z m0 908.8A424.448 424.448 0 0 1 88 512 424.512 424.512 0 0 1 512 88 424.448 424.448 0 0 1 936 512 424.448 424.448 0 0 1 512 936z" fill="#ffffff" p-id="11769"></path><path d="M807.808 301.056a32 32 0 0 0-45.184 2.368L463.552 635.392 291.712 493.44a32 32 0 0 0-40.768 49.28L446.016 704c5.568 4.608 12.224 6.4 18.944 6.72 1.408 0.128 2.816 0.512 4.288 0.448 0.64-0.064 1.216-0.384 1.856-0.448a31.552 31.552 0 0 0 19.776-9.984l319.296-354.432a32 32 0 0 0-2.368-45.184z" fill="#ffffff" p-id="11770"></path></svg>