<?xml version="1.0" standalone="no"?><!DOCTYPE svg PUBLIC "-//W3C//DTD SVG 1.1//EN" "http://www.w3.org/Graphics/SVG/1.1/DTD/svg11.dtd"><svg t="1556104737500" class="icon" style="" viewBox="0 0 1024 1024" version="1.1" xmlns="http://www.w3.org/2000/svg" p-id="28734" xmlns:xlink="http://www.w3.org/1999/xlink" width="200" height="200"><defs><style type="text/css"></style></defs><path d="M509.5 816.9c-166.6 0-302.1-135.5-302.1-302.1 0-166.6 135.5-302.1 302.1-302.1s302.1 135.5 302.1 302.1c0 22.4-2.5 44.6-7.3 66.3-2.8 12.5-15.1 20.3-27.7 17.6-12.5-2.8-20.3-15.2-17.6-27.7 4.1-18.3 6.2-37.2 6.2-56.1 0-141-114.7-255.8-255.8-255.8-141 0-255.8 114.7-255.8 255.8 0 141 114.7 255.8 255.8 255.8 24.2 0 48.1-3.4 71.1-10 12.2-3.6 25.1 3.5 28.7 15.8 3.5 12.3-3.5 25.1-15.8 28.7-27.2 7.7-55.4 11.7-83.9 11.7z m139-144.2c-5.4 0-10.9-1.9-15.3-5.8L480.8 532.2c-5-4.4-7.8-10.7-7.8-17.4V353.1c0-12.8 10.4-23.2 23.2-23.2 12.8 0 23.2 10.4 23.2 23.2v151.2L664 632.1c9.6 8.5 10.5 23.1 2 32.7-4.7 5.3-11.1 7.9-17.5 7.9z m38.2 50.8c0 9.6 4 19.2 10.8 26 6.8 6.8 16.4 10.7 26 10.7 9.6 0 19.2-4 26-10.7 6.8-6.8 10.8-16.4 10.8-26 0-9.6-4-19.2-10.8-26-6.8-6.8-16.4-10.8-26-10.8-9.6 0-19.2 4-26 10.8-6.9 6.9-10.8 16.4-10.8 26z" fill="#8a8a8a" p-id="28735"></path></svg>